<?xml version="1.0" encoding="utf-8"?>
<!-- Generator: Adobe Illustrator 18.1.0, SVG Export Plug-In . SVG Version: 6.00 Build 0)  -->
<svg version="1.1" id="Layer_1" xmlns="http://www.w3.org/2000/svg" xmlns:xlink="http://www.w3.org/1999/xlink" x="0px" y="0px"
	 viewBox="0 0 167.3 35.3" enable-background="new 0 0 167.3 35.3" xml:space="preserve">
<g>
	<path stroke="#000000" stroke-width="1.9446" stroke-miterlimit="10" d="M1,5.1h10.2c1.4,0,2.7,0.1,3.9,0.3
		c1.3,0.2,2.4,0.6,3.3,1.2c1,0.6,1.7,1.4,2.3,2.4c0.6,1,0.9,2.3,0.9,3.8c0,2.8-0.9,4.8-2.6,6.3c-1.7,1.4-4.3,2.2-7.6,2.2H3v11.8H1
		V5.1z M3,19.2h8.5c1.4,0,2.7-0.1,3.7-0.4c1-0.3,1.8-0.7,2.5-1.2c0.6-0.5,1.1-1.2,1.4-2c0.3-0.8,0.4-1.7,0.4-2.7
		c0-1.2-0.2-2.3-0.7-3c-0.4-0.8-1-1.4-1.8-1.8c-0.7-0.4-1.6-0.7-2.6-0.8c-1-0.1-2-0.2-3.1-0.2H3V19.2z"/>
	<path stroke="#000000" stroke-width="1.9446" stroke-miterlimit="10" d="M47.4,5.1l8.9,12.3l8.9-12.3h2.5l-10.2,14l10.2,14h-2.5
		l-8.9-12.3l-8.9,12.3h-2.5l10.2-14l-10.2-14H47.4z"/>
	<path fill="#9AD2DB" d="M95.5,33.1h-21V4h20.3v2.1H76.6v10.8h17V19h-17v12h18.9V33.1z"/>
	<path fill="#9AD2DB" d="M126.8,18.4c0,9.9-4.9,14.8-14.7,14.8h-8.8V4h8.8c4.9,0,8.6,1.2,11,3.5C125.6,10,126.8,13.6,126.8,18.4z
		 M124.6,18.4c0-1.9-0.2-3.6-0.6-5.1c-0.4-1.5-1.1-2.8-2-3.8c-1-1.1-2.2-1.9-3.8-2.4c-1.6-0.5-3.6-0.8-6.1-0.8h-6.6V31h6.6
		c2.4,0,4.4-0.3,6-0.9c1.6-0.6,2.9-1.4,3.8-2.5c1-1.1,1.6-2.4,2-4C124.4,22.1,124.6,20.4,124.6,18.4z"/>
	<path fill="#9AD2DB" d="M137.5,33.1h-2.1V4h2.1V33.1z"/>
	<path fill="#9AD2DB" d="M167.3,6.2h-10.2v27H155v-27h-10.1V4h22.4V6.2z"/>
</g>
<path d="M40.1,0.1c-0.3,0.1-0.6,0.3-0.8,0.4C39,0.7,38.7,0.8,38.5,1c-0.7,0.5-1.2,1.1-1.2,1.9c0,0.6,0,1.1,0.1,1.7
	c0.1,1.4-0.6,2.3-2,2.7c-0.9,0.2-1.9,0.1-2.7-0.2c-1.3-0.6-1.6-1.7-0.5-2.8c0.7-0.7,1.4-1.3,2.2-1.8c1.6-1.1,3.3-1.9,5.2-2.3
	c0.2,0,0.3,0,0.5-0.1C40.1,0,40.1,0.1,40.1,0.1z"/>
<path d="M34.2,8.5c-0.5-0.1-1.1-0.2-1.6-0.3c-0.4-0.1-0.6,0-0.7,0.4c-0.2,0.5-0.3,0.9-0.4,1.4c-0.9,2.5-1.9,5.1-2.8,7.6
	c-1.7,4.4-3.3,8.9-5,13.3c-0.4,1-0.4,2-0.1,2.7c0.8,1.8,2.6,2.2,4.1,1c0.9-0.7,1.4-1.6,1.6-2.6c1.2-5.3,2.4-10.6,3.6-16
	c0.5-2.3,1.1-4.6,1.6-6.9C34.8,8.7,34.7,8.6,34.2,8.5z M26.3,34.9c1.6-2.4,1.2-4.2,1.2-4.2l1.5,0.4C28.6,33.8,26.3,34.9,26.3,34.9z"
	/>
</svg>
